<?xml version="1.0" encoding="utf-8" standalone="no"?>
<!DOCTYPE svg PUBLIC "-//W3C//DTD SVG 1.1//EN"
  "http://www.w3.org/Graphics/SVG/1.1/DTD/svg11.dtd">
<svg xmlns:xlink="http://www.w3.org/1999/xlink" width="460.8pt" height="345.6pt" viewBox="0 0 460.8 345.6" xmlns="http://www.w3.org/2000/svg" version="1.1">
 <metadata>
  <rdf:RDF xmlns:dc="http://purl.org/dc/elements/1.1/" xmlns:cc="http://creativecommons.org/ns#" xmlns:rdf="http://www.w3.org/1999/02/22-rdf-syntax-ns#">
   <cc:Work>
    <dc:type rdf:resource="http://purl.org/dc/dcmitype/StillImage"/>
    <dc:date>2024-03-11T22:19:49.233623</dc:date>
    <dc:format>image/svg+xml</dc:format>
    <dc:creator>
     <cc:Agent>
      <dc:title>Matplotlib v3.7.2, https://matplotlib.org/</dc:title>
     </cc:Agent>
    </dc:creator>
   </cc:Work>
  </rdf:RDF>
 </metadata>
 <defs>
  <style type="text/css">*{stroke-linejoin: round; stroke-linecap: butt}</style>
 </defs>
 <g id="figure_1">
  <g id="patch_1">
   <path d="M 0 345.6 
L 460.8 345.6 
L 460.8 0 
L 0 0 
z
" style="fill: #ffffff"/>
  </g>
  <g id="axes_1">
   <g id="patch_2">
    <path d="M 57.6 307.584 
L 414.72 307.584 
L 414.72 41.472 
L 57.6 41.472 
z
" style="fill: #ffffff"/>
   </g>
   <g id="matplotlib.axis_1">
    <g id="xtick_1">
     <g id="line2d_1">
      <defs>
       <path id="m7d4ec1f0a5" d="M 0 0 
L 0 3.5 
" style="stroke: #000000; stroke-width: 0.8"/>
      </defs>
      <g>
       <use xlink:href="#m7d4ec1f0a5" x="73.832727" y="307.584" style="stroke: #000000; stroke-width: 0.8"/>
      </g>
     </g>
     <g id="text_1">
      <!-- 0 -->
      <g transform="translate(70.651477 322.182437) scale(0.1 -0.1)">
       <defs>
        <path id="DejaVuSans-30" d="M 2034 4250 
Q 1547 4250 1301 3770 
Q 1056 3291 1056 2328 
Q 1056 1369 1301 889 
Q 1547 409 2034 409 
Q 2525 409 2770 889 
Q 3016 1369 3016 2328 
Q 3016 3291 2770 3770 
Q 2525 4250 2034 4250 
z
M 2034 4750 
Q 2819 4750 3233 4129 
Q 3647 3509 3647 2328 
Q 3647 1150 3233 529 
Q 2819 -91 2034 -91 
Q 1250 -91 836 529 
Q 422 1150 422 2328 
Q 422 3509 836 4129 
Q 1250 4750 2034 4750 
z
" transform="scale(0.015625)"/>
       </defs>
       <use xlink:href="#DejaVuSans-30"/>
      </g>
     </g>
    </g>
    <g id="xtick_2">
     <g id="line2d_2">
      <g>
       <use xlink:href="#m7d4ec1f0a5" x="139.419504" y="307.584" style="stroke: #000000; stroke-width: 0.8"/>
      </g>
     </g>
     <g id="text_2">
      <!-- 20 -->
      <g transform="translate(133.057004 322.182437) scale(0.1 -0.1)">
       <defs>
        <path id="DejaVuSans-32" d="M 1228 531 
L 3431 531 
L 3431 0 
L 469 0 
L 469 531 
Q 828 903 1448 1529 
Q 2069 2156 2228 2338 
Q 2531 2678 2651 2914 
Q 2772 3150 2772 3378 
Q 2772 3750 2511 3984 
Q 2250 4219 1831 4219 
Q 1534 4219 1204 4116 
Q 875 4013 500 3803 
L 500 4441 
Q 881 4594 1212 4672 
Q 1544 4750 1819 4750 
Q 2544 4750 2975 4387 
Q 3406 4025 3406 3419 
Q 3406 3131 3298 2873 
Q 3191 2616 2906 2266 
Q 2828 2175 2409 1742 
Q 1991 1309 1228 531 
z
" transform="scale(0.015625)"/>
       </defs>
       <use xlink:href="#DejaVuSans-32"/>
       <use xlink:href="#DejaVuSans-30" x="63.623047"/>
      </g>
     </g>
    </g>
    <g id="xtick_3">
     <g id="line2d_3">
      <g>
       <use xlink:href="#m7d4ec1f0a5" x="205.006281" y="307.584" style="stroke: #000000; stroke-width: 0.8"/>
      </g>
     </g>
     <g id="text_3">
      <!-- 40 -->
      <g transform="translate(198.643781 322.182437) scale(0.1 -0.1)">
       <defs>
        <path id="DejaVuSans-34" d="M 2419 4116 
L 825 1625 
L 2419 1625 
L 2419 4116 
z
M 2253 4666 
L 3047 4666 
L 3047 1625 
L 3713 1625 
L 3713 1100 
L 3047 1100 
L 3047 0 
L 2419 0 
L 2419 1100 
L 313 1100 
L 313 1709 
L 2253 4666 
z
" transform="scale(0.015625)"/>
       </defs>
       <use xlink:href="#DejaVuSans-34"/>
       <use xlink:href="#DejaVuSans-30" x="63.623047"/>
      </g>
     </g>
    </g>
    <g id="xtick_4">
     <g id="line2d_4">
      <g>
       <use xlink:href="#m7d4ec1f0a5" x="270.593058" y="307.584" style="stroke: #000000; stroke-width: 0.8"/>
      </g>
     </g>
     <g id="text_4">
      <!-- 60 -->
      <g transform="translate(264.230558 322.182437) scale(0.1 -0.1)">
       <defs>
        <path id="DejaVuSans-36" d="M 2113 2584 
Q 1688 2584 1439 2293 
Q 1191 2003 1191 1497 
Q 1191 994 1439 701 
Q 1688 409 2113 409 
Q 2538 409 2786 701 
Q 3034 994 3034 1497 
Q 3034 2003 2786 2293 
Q 2538 2584 2113 2584 
z
M 3366 4563 
L 3366 3988 
Q 3128 4100 2886 4159 
Q 2644 4219 2406 4219 
Q 1781 4219 1451 3797 
Q 1122 3375 1075 2522 
Q 1259 2794 1537 2939 
Q 1816 3084 2150 3084 
Q 2853 3084 3261 2657 
Q 3669 2231 3669 1497 
Q 3669 778 3244 343 
Q 2819 -91 2113 -91 
Q 1303 -91 875 529 
Q 447 1150 447 2328 
Q 447 3434 972 4092 
Q 1497 4750 2381 4750 
Q 2619 4750 2861 4703 
Q 3103 4656 3366 4563 
z
" transform="scale(0.015625)"/>
       </defs>
       <use xlink:href="#DejaVuSans-36"/>
       <use xlink:href="#DejaVuSans-30" x="63.623047"/>
      </g>
     </g>
    </g>
    <g id="xtick_5">
     <g id="line2d_5">
      <g>
       <use xlink:href="#m7d4ec1f0a5" x="336.179835" y="307.584" style="stroke: #000000; stroke-width: 0.8"/>
      </g>
     </g>
     <g id="text_5">
      <!-- 80 -->
      <g transform="translate(329.817335 322.182437) scale(0.1 -0.1)">
       <defs>
        <path id="DejaVuSans-38" d="M 2034 2216 
Q 1584 2216 1326 1975 
Q 1069 1734 1069 1313 
Q 1069 891 1326 650 
Q 1584 409 2034 409 
Q 2484 409 2743 651 
Q 3003 894 3003 1313 
Q 3003 1734 2745 1975 
Q 2488 2216 2034 2216 
z
M 1403 2484 
Q 997 2584 770 2862 
Q 544 3141 544 3541 
Q 544 4100 942 4425 
Q 1341 4750 2034 4750 
Q 2731 4750 3128 4425 
Q 3525 4100 3525 3541 
Q 3525 3141 3298 2862 
Q 3072 2584 2669 2484 
Q 3125 2378 3379 2068 
Q 3634 1759 3634 1313 
Q 3634 634 3220 271 
Q 2806 -91 2034 -91 
Q 1263 -91 848 271 
Q 434 634 434 1313 
Q 434 1759 690 2068 
Q 947 2378 1403 2484 
z
M 1172 3481 
Q 1172 3119 1398 2916 
Q 1625 2713 2034 2713 
Q 2441 2713 2670 2916 
Q 2900 3119 2900 3481 
Q 2900 3844 2670 4047 
Q 2441 4250 2034 4250 
Q 1625 4250 1398 4047 
Q 1172 3844 1172 3481 
z
" transform="scale(0.015625)"/>
       </defs>
       <use xlink:href="#DejaVuSans-38"/>
       <use xlink:href="#DejaVuSans-30" x="63.623047"/>
      </g>
     </g>
    </g>
    <g id="xtick_6">
     <g id="line2d_6">
      <g>
       <use xlink:href="#m7d4ec1f0a5" x="401.766612" y="307.584" style="stroke: #000000; stroke-width: 0.8"/>
      </g>
     </g>
     <g id="text_6">
      <!-- 100 -->
      <g transform="translate(392.222862 322.182437) scale(0.1 -0.1)">
       <defs>
        <path id="DejaVuSans-31" d="M 794 531 
L 1825 531 
L 1825 4091 
L 703 3866 
L 703 4441 
L 1819 4666 
L 2450 4666 
L 2450 531 
L 3481 531 
L 3481 0 
L 794 0 
L 794 531 
z
" transform="scale(0.015625)"/>
       </defs>
       <use xlink:href="#DejaVuSans-31"/>
       <use xlink:href="#DejaVuSans-30" x="63.623047"/>
       <use xlink:href="#DejaVuSans-30" x="127.246094"/>
      </g>
     </g>
    </g>
    <g id="text_7">
     <!-- epoch -->
     <g transform="translate(220.931875 335.860562) scale(0.1 -0.1)">
      <defs>
       <path id="DejaVuSans-65" d="M 3597 1894 
L 3597 1613 
L 953 1613 
Q 991 1019 1311 708 
Q 1631 397 2203 397 
Q 2534 397 2845 478 
Q 3156 559 3463 722 
L 3463 178 
Q 3153 47 2828 -22 
Q 2503 -91 2169 -91 
Q 1331 -91 842 396 
Q 353 884 353 1716 
Q 353 2575 817 3079 
Q 1281 3584 2069 3584 
Q 2775 3584 3186 3129 
Q 3597 2675 3597 1894 
z
M 3022 2063 
Q 3016 2534 2758 2815 
Q 2500 3097 2075 3097 
Q 1594 3097 1305 2825 
Q 1016 2553 972 2059 
L 3022 2063 
z
" transform="scale(0.015625)"/>
       <path id="DejaVuSans-70" d="M 1159 525 
L 1159 -1331 
L 581 -1331 
L 581 3500 
L 1159 3500 
L 1159 2969 
Q 1341 3281 1617 3432 
Q 1894 3584 2278 3584 
Q 2916 3584 3314 3078 
Q 3713 2572 3713 1747 
Q 3713 922 3314 415 
Q 2916 -91 2278 -91 
Q 1894 -91 1617 61 
Q 1341 213 1159 525 
z
M 3116 1747 
Q 3116 2381 2855 2742 
Q 2594 3103 2138 3103 
Q 1681 3103 1420 2742 
Q 1159 2381 1159 1747 
Q 1159 1113 1420 752 
Q 1681 391 2138 391 
Q 2594 391 2855 752 
Q 3116 1113 3116 1747 
z
" transform="scale(0.015625)"/>
       <path id="DejaVuSans-6f" d="M 1959 3097 
Q 1497 3097 1228 2736 
Q 959 2375 959 1747 
Q 959 1119 1226 758 
Q 1494 397 1959 397 
Q 2419 397 2687 759 
Q 2956 1122 2956 1747 
Q 2956 2369 2687 2733 
Q 2419 3097 1959 3097 
z
M 1959 3584 
Q 2709 3584 3137 3096 
Q 3566 2609 3566 1747 
Q 3566 888 3137 398 
Q 2709 -91 1959 -91 
Q 1206 -91 779 398 
Q 353 888 353 1747 
Q 353 2609 779 3096 
Q 1206 3584 1959 3584 
z
" transform="scale(0.015625)"/>
       <path id="DejaVuSans-63" d="M 3122 3366 
L 3122 2828 
Q 2878 2963 2633 3030 
Q 2388 3097 2138 3097 
Q 1578 3097 1268 2742 
Q 959 2388 959 1747 
Q 959 1106 1268 751 
Q 1578 397 2138 397 
Q 2388 397 2633 464 
Q 2878 531 3122 666 
L 3122 134 
Q 2881 22 2623 -34 
Q 2366 -91 2075 -91 
Q 1284 -91 818 406 
Q 353 903 353 1747 
Q 353 2603 823 3093 
Q 1294 3584 2113 3584 
Q 2378 3584 2631 3529 
Q 2884 3475 3122 3366 
z
" transform="scale(0.015625)"/>
       <path id="DejaVuSans-68" d="M 3513 2113 
L 3513 0 
L 2938 0 
L 2938 2094 
Q 2938 2591 2744 2837 
Q 2550 3084 2163 3084 
Q 1697 3084 1428 2787 
Q 1159 2491 1159 1978 
L 1159 0 
L 581 0 
L 581 4863 
L 1159 4863 
L 1159 2956 
Q 1366 3272 1645 3428 
Q 1925 3584 2291 3584 
Q 2894 3584 3203 3211 
Q 3513 2838 3513 2113 
z
" transform="scale(0.015625)"/>
      </defs>
      <use xlink:href="#DejaVuSans-65"/>
      <use xlink:href="#DejaVuSans-70" x="61.523438"/>
      <use xlink:href="#DejaVuSans-6f" x="125"/>
      <use xlink:href="#DejaVuSans-63" x="186.181641"/>
      <use xlink:href="#DejaVuSans-68" x="241.162109"/>
     </g>
    </g>
   </g>
   <g id="matplotlib.axis_2">
    <g id="ytick_1">
     <g id="line2d_7">
      <defs>
       <path id="m2685af1dda" d="M 0 0 
L -3.5 0 
" style="stroke: #000000; stroke-width: 0.8"/>
      </defs>
      <g>
       <use xlink:href="#m2685af1dda" x="57.6" y="282.577325" style="stroke: #000000; stroke-width: 0.8"/>
      </g>
     </g>
     <g id="text_8">
      <!-- 1 -->
      <g transform="translate(44.2375 286.376543) scale(0.1 -0.1)">
       <use xlink:href="#DejaVuSans-31"/>
      </g>
     </g>
    </g>
    <g id="ytick_2">
     <g id="line2d_8">
      <g>
       <use xlink:href="#m2685af1dda" x="57.6" y="240.920442" style="stroke: #000000; stroke-width: 0.8"/>
      </g>
     </g>
     <g id="text_9">
      <!-- 2 -->
      <g transform="translate(44.2375 244.719661) scale(0.1 -0.1)">
       <use xlink:href="#DejaVuSans-32"/>
      </g>
     </g>
    </g>
    <g id="ytick_3">
     <g id="line2d_9">
      <g>
       <use xlink:href="#m2685af1dda" x="57.6" y="199.26356" style="stroke: #000000; stroke-width: 0.8"/>
      </g>
     </g>
     <g id="text_10">
      <!-- 3 -->
      <g transform="translate(44.2375 203.062779) scale(0.1 -0.1)">
       <defs>
        <path id="DejaVuSans-33" d="M 2597 2516 
Q 3050 2419 3304 2112 
Q 3559 1806 3559 1356 
Q 3559 666 3084 287 
Q 2609 -91 1734 -91 
Q 1441 -91 1130 -33 
Q 819 25 488 141 
L 488 750 
Q 750 597 1062 519 
Q 1375 441 1716 441 
Q 2309 441 2620 675 
Q 2931 909 2931 1356 
Q 2931 1769 2642 2001 
Q 2353 2234 1838 2234 
L 1294 2234 
L 1294 2753 
L 1863 2753 
Q 2328 2753 2575 2939 
Q 2822 3125 2822 3475 
Q 2822 3834 2567 4026 
Q 2313 4219 1838 4219 
Q 1578 4219 1281 4162 
Q 984 4106 628 3988 
L 628 4550 
Q 988 4650 1302 4700 
Q 1616 4750 1894 4750 
Q 2613 4750 3031 4423 
Q 3450 4097 3450 3541 
Q 3450 3153 3228 2886 
Q 3006 2619 2597 2516 
z
" transform="scale(0.015625)"/>
       </defs>
       <use xlink:href="#DejaVuSans-33"/>
      </g>
     </g>
    </g>
    <g id="ytick_4">
     <g id="line2d_10">
      <g>
       <use xlink:href="#m2685af1dda" x="57.6" y="157.606678" style="stroke: #000000; stroke-width: 0.8"/>
      </g>
     </g>
     <g id="text_11">
      <!-- 4 -->
      <g transform="translate(44.2375 161.405897) scale(0.1 -0.1)">
       <use xlink:href="#DejaVuSans-34"/>
      </g>
     </g>
    </g>
    <g id="ytick_5">
     <g id="line2d_11">
      <g>
       <use xlink:href="#m2685af1dda" x="57.6" y="115.949796" style="stroke: #000000; stroke-width: 0.8"/>
      </g>
     </g>
     <g id="text_12">
      <!-- 5 -->
      <g transform="translate(44.2375 119.749015) scale(0.1 -0.1)">
       <defs>
        <path id="DejaVuSans-35" d="M 691 4666 
L 3169 4666 
L 3169 4134 
L 1269 4134 
L 1269 2991 
Q 1406 3038 1543 3061 
Q 1681 3084 1819 3084 
Q 2600 3084 3056 2656 
Q 3513 2228 3513 1497 
Q 3513 744 3044 326 
Q 2575 -91 1722 -91 
Q 1428 -91 1123 -41 
Q 819 9 494 109 
L 494 744 
Q 775 591 1075 516 
Q 1375 441 1709 441 
Q 2250 441 2565 725 
Q 2881 1009 2881 1497 
Q 2881 1984 2565 2268 
Q 2250 2553 1709 2553 
Q 1456 2553 1204 2497 
Q 953 2441 691 2322 
L 691 4666 
z
" transform="scale(0.015625)"/>
       </defs>
       <use xlink:href="#DejaVuSans-35"/>
      </g>
     </g>
    </g>
    <g id="ytick_6">
     <g id="line2d_12">
      <g>
       <use xlink:href="#m2685af1dda" x="57.6" y="74.292914" style="stroke: #000000; stroke-width: 0.8"/>
      </g>
     </g>
     <g id="text_13">
      <!-- 6 -->
      <g transform="translate(44.2375 78.092133) scale(0.1 -0.1)">
       <use xlink:href="#DejaVuSans-36"/>
      </g>
     </g>
    </g>
    <g id="text_14">
     <!-- loss -->
     <g transform="translate(38.157812 184.185812) rotate(-90) scale(0.1 -0.1)">
      <defs>
       <path id="DejaVuSans-6c" d="M 603 4863 
L 1178 4863 
L 1178 0 
L 603 0 
L 603 4863 
z
" transform="scale(0.015625)"/>
       <path id="DejaVuSans-73" d="M 2834 3397 
L 2834 2853 
Q 2591 2978 2328 3040 
Q 2066 3103 1784 3103 
Q 1356 3103 1142 2972 
Q 928 2841 928 2578 
Q 928 2378 1081 2264 
Q 1234 2150 1697 2047 
L 1894 2003 
Q 2506 1872 2764 1633 
Q 3022 1394 3022 966 
Q 3022 478 2636 193 
Q 2250 -91 1575 -91 
Q 1294 -91 989 -36 
Q 684 19 347 128 
L 347 722 
Q 666 556 975 473 
Q 1284 391 1588 391 
Q 1994 391 2212 530 
Q 2431 669 2431 922 
Q 2431 1156 2273 1281 
Q 2116 1406 1581 1522 
L 1381 1569 
Q 847 1681 609 1914 
Q 372 2147 372 2553 
Q 372 3047 722 3315 
Q 1072 3584 1716 3584 
Q 2034 3584 2315 3537 
Q 2597 3491 2834 3397 
z
" transform="scale(0.015625)"/>
      </defs>
      <use xlink:href="#DejaVuSans-6c"/>
      <use xlink:href="#DejaVuSans-6f" x="27.783203"/>
      <use xlink:href="#DejaVuSans-73" x="88.964844"/>
      <use xlink:href="#DejaVuSans-73" x="141.064453"/>
     </g>
    </g>
   </g>
   <g id="line2d_13">
    <path d="M 73.832727 187.985969 
L 77.112066 198.021122 
L 80.391405 203.062269 
L 83.670744 206.369986 
L 86.950083 208.592625 
L 90.229421 210.621332 
L 93.50876 212.691188 
L 96.788099 215.295149 
L 100.067438 215.7613 
L 103.346777 218.21813 
L 106.626116 219.862924 
L 109.905455 221.808559 
L 113.184793 221.682316 
L 116.464132 222.906127 
L 119.743471 223.867369 
L 123.02281 226.78255 
L 126.302149 227.870319 
L 129.581488 228.888232 
L 132.860826 229.660536 
L 136.140165 231.775497 
L 139.419504 232.669798 
L 142.698843 234.50065 
L 145.978182 234.798147 
L 149.257521 237.923923 
L 152.53686 238.220227 
L 155.816198 239.441265 
L 159.095537 241.008869 
L 162.374876 239.6032 
L 165.654215 242.488304 
L 168.933554 243.624843 
L 172.212893 243.634048 
L 175.492231 245.956023 
L 178.77157 247.587904 
L 182.050909 249.33927 
L 185.330248 250.256337 
L 188.609587 251.077767 
L 191.888926 249.865479 
L 195.168264 252.858543 
L 198.447603 256.467192 
L 201.726942 254.949565 
L 205.006281 254.653147 
L 208.28562 253.648087 
L 211.564959 255.034556 
L 214.844298 258.757768 
L 218.123636 258.010618 
L 221.402975 258.041353 
L 224.682314 263.810988 
L 227.961653 264.729592 
L 231.240992 266.173287 
L 234.520331 265.62898 
L 237.799669 264.520059 
L 241.079008 266.738336 
L 244.358347 263.897045 
L 247.637686 266.824644 
L 250.917025 270.40329 
L 254.196364 266.35143 
L 257.475702 268.162084 
L 260.755041 271.009747 
L 264.03438 273.528737 
L 267.313719 273.697656 
L 270.593058 273.606796 
L 273.872397 271.94967 
L 277.151736 277.632614 
L 280.431074 276.119013 
L 283.710413 268.725889 
L 286.989752 278.469903 
L 290.269091 277.040371 
L 293.54843 277.883949 
L 296.827769 280.291705 
L 300.107107 278.844577 
L 303.386446 284.079181 
L 306.665785 279.847036 
L 309.945124 282.066636 
L 313.224463 280.143005 
L 316.503802 289.183188 
L 319.78314 285.062238 
L 323.062479 281.287944 
L 326.341818 283.457141 
L 329.621157 282.349711 
L 332.900496 281.522907 
L 336.179835 287.509357 
L 339.459174 283.080453 
L 342.738512 288.198651 
L 346.017851 288.668919 
L 349.29719 285.011567 
L 352.576529 282.623696 
L 355.855868 287.050519 
L 359.135207 290.590576 
L 362.414545 291.096639 
L 365.693884 289.31022 
L 368.973223 290.382668 
L 372.252562 289.888389 
L 375.531901 291.179422 
L 378.81124 287.112531 
L 382.090579 292.304001 
L 385.369917 295.475248 
L 388.649256 290.080649 
L 391.928595 284.025278 
L 395.207934 293.710629 
L 398.487273 295.488 
" clip-path="url(#p069ff709e8)" style="fill: none; stroke: #ff0000; stroke-width: 1.5; stroke-linecap: square"/>
   </g>
   <g id="line2d_14">
    <path d="M 73.832727 193.510204 
L 77.112066 201.537014 
L 80.391405 201.268044 
L 83.670744 202.284066 
L 86.950083 206.838922 
L 90.229421 208.181186 
L 93.50876 208.218027 
L 96.788099 205.271537 
L 100.067438 210.631967 
L 103.346777 211.599661 
L 106.626116 206.407005 
L 109.905455 208.215874 
L 113.184793 206.266339 
L 116.464132 208.876466 
L 119.743471 208.616984 
L 123.02281 206.53525 
L 126.302149 199.245263 
L 129.581488 202.251412 
L 132.860826 207.730785 
L 136.140165 206.250504 
L 139.419504 202.153387 
L 142.698843 201.963272 
L 145.978182 202.019437 
L 149.257521 201.920413 
L 152.53686 202.948803 
L 155.816198 196.965299 
L 159.095537 198.136327 
L 162.374876 196.857469 
L 165.654215 198.727218 
L 168.933554 195.567765 
L 172.212893 196.577825 
L 175.492231 194.506861 
L 178.77157 193.823579 
L 182.050909 190.150577 
L 185.330248 188.17263 
L 188.609587 186.755057 
L 191.888926 183.292959 
L 195.168264 179.1177 
L 198.447603 176.337531 
L 201.726942 177.515918 
L 205.006281 186.80141 
L 208.28562 172.312527 
L 211.564959 173.184676 
L 214.844298 172.747712 
L 218.123636 172.698176 
L 221.402975 178.027442 
L 224.682314 163.496928 
L 227.961653 168.930672 
L 231.240992 167.595906 
L 234.520331 161.318129 
L 237.799669 168.682566 
L 241.079008 163.048302 
L 244.358347 165.125702 
L 247.637686 155.019465 
L 250.917025 161.720354 
L 254.196364 163.151092 
L 257.475702 157.001111 
L 260.755041 149.753066 
L 264.03438 152.546309 
L 267.313719 132.998399 
L 270.593058 140.282031 
L 273.872397 142.092927 
L 277.151736 119.80185 
L 280.431074 128.427013 
L 283.710413 144.913919 
L 286.989752 133.239339 
L 290.269091 129.800204 
L 293.54843 143.176999 
L 296.827769 120.286483 
L 300.107107 123.613048 
L 303.386446 97.066754 
L 306.665785 122.259708 
L 309.945124 105.126051 
L 313.224463 118.924725 
L 316.503802 110.235536 
L 319.78314 106.560613 
L 323.062479 103.519124 
L 326.341818 94.812797 
L 329.621157 119.895837 
L 332.900496 117.479263 
L 336.179835 99.153372 
L 339.459174 110.752068 
L 342.738512 106.101907 
L 346.017851 91.69985 
L 349.29719 103.979189 
L 352.576529 76.69264 
L 355.855868 101.603186 
L 359.135207 86.265423 
L 362.414545 71.677793 
L 365.693884 86.134735 
L 368.973223 77.944651 
L 372.252562 86.83245 
L 375.531901 85.249319 
L 378.81124 81.590662 
L 382.090579 75.179347 
L 385.369917 80.210468 
L 388.649256 54.957374 
L 391.928595 53.568 
L 395.207934 77.960493 
L 398.487273 57.828075 
" clip-path="url(#p069ff709e8)" style="fill: none; stroke: #008000; stroke-width: 1.5; stroke-linecap: square"/>
   </g>
   <g id="patch_3">
    <path d="M 57.6 307.584 
L 57.6 41.472 
" style="fill: none; stroke: #000000; stroke-width: 0.8; stroke-linejoin: miter; stroke-linecap: square"/>
   </g>
   <g id="patch_4">
    <path d="M 414.72 307.584 
L 414.72 41.472 
" style="fill: none; stroke: #000000; stroke-width: 0.8; stroke-linejoin: miter; stroke-linecap: square"/>
   </g>
   <g id="patch_5">
    <path d="M 57.6 307.584 
L 414.72 307.584 
" style="fill: none; stroke: #000000; stroke-width: 0.8; stroke-linejoin: miter; stroke-linecap: square"/>
   </g>
   <g id="patch_6">
    <path d="M 57.6 41.472 
L 414.72 41.472 
" style="fill: none; stroke: #000000; stroke-width: 0.8; stroke-linejoin: miter; stroke-linecap: square"/>
   </g>
   <g id="text_15">
    <!-- MLP Training and validation loss &amp; topk accuracy -->
    <g transform="translate(89.5275 35.472) scale(0.12 -0.12)">
     <defs>
      <path id="DejaVuSans-4d" d="M 628 4666 
L 1569 4666 
L 2759 1491 
L 3956 4666 
L 4897 4666 
L 4897 0 
L 4281 0 
L 4281 4097 
L 3078 897 
L 2444 897 
L 1241 4097 
L 1241 0 
L 628 0 
L 628 4666 
z
" transform="scale(0.015625)"/>
      <path id="DejaVuSans-4c" d="M 628 4666 
L 1259 4666 
L 1259 531 
L 3531 531 
L 3531 0 
L 628 0 
L 628 4666 
z
" transform="scale(0.015625)"/>
      <path id="DejaVuSans-50" d="M 1259 4147 
L 1259 2394 
L 2053 2394 
Q 2494 2394 2734 2622 
Q 2975 2850 2975 3272 
Q 2975 3691 2734 3919 
Q 2494 4147 2053 4147 
L 1259 4147 
z
M 628 4666 
L 2053 4666 
Q 2838 4666 3239 4311 
Q 3641 3956 3641 3272 
Q 3641 2581 3239 2228 
Q 2838 1875 2053 1875 
L 1259 1875 
L 1259 0 
L 628 0 
L 628 4666 
z
" transform="scale(0.015625)"/>
      <path id="DejaVuSans-20" transform="scale(0.015625)"/>
      <path id="DejaVuSans-54" d="M -19 4666 
L 3928 4666 
L 3928 4134 
L 2272 4134 
L 2272 0 
L 1638 0 
L 1638 4134 
L -19 4134 
L -19 4666 
z
" transform="scale(0.015625)"/>
      <path id="DejaVuSans-72" d="M 2631 2963 
Q 2534 3019 2420 3045 
Q 2306 3072 2169 3072 
Q 1681 3072 1420 2755 
Q 1159 2438 1159 1844 
L 1159 0 
L 581 0 
L 581 3500 
L 1159 3500 
L 1159 2956 
Q 1341 3275 1631 3429 
Q 1922 3584 2338 3584 
Q 2397 3584 2469 3576 
Q 2541 3569 2628 3553 
L 2631 2963 
z
" transform="scale(0.015625)"/>
      <path id="DejaVuSans-61" d="M 2194 1759 
Q 1497 1759 1228 1600 
Q 959 1441 959 1056 
Q 959 750 1161 570 
Q 1363 391 1709 391 
Q 2188 391 2477 730 
Q 2766 1069 2766 1631 
L 2766 1759 
L 2194 1759 
z
M 3341 1997 
L 3341 0 
L 2766 0 
L 2766 531 
Q 2569 213 2275 61 
Q 1981 -91 1556 -91 
Q 1019 -91 701 211 
Q 384 513 384 1019 
Q 384 1609 779 1909 
Q 1175 2209 1959 2209 
L 2766 2209 
L 2766 2266 
Q 2766 2663 2505 2880 
Q 2244 3097 1772 3097 
Q 1472 3097 1187 3025 
Q 903 2953 641 2809 
L 641 3341 
Q 956 3463 1253 3523 
Q 1550 3584 1831 3584 
Q 2591 3584 2966 3190 
Q 3341 2797 3341 1997 
z
" transform="scale(0.015625)"/>
      <path id="DejaVuSans-69" d="M 603 3500 
L 1178 3500 
L 1178 0 
L 603 0 
L 603 3500 
z
M 603 4863 
L 1178 4863 
L 1178 4134 
L 603 4134 
L 603 4863 
z
" transform="scale(0.015625)"/>
      <path id="DejaVuSans-6e" d="M 3513 2113 
L 3513 0 
L 2938 0 
L 2938 2094 
Q 2938 2591 2744 2837 
Q 2550 3084 2163 3084 
Q 1697 3084 1428 2787 
Q 1159 2491 1159 1978 
L 1159 0 
L 581 0 
L 581 3500 
L 1159 3500 
L 1159 2956 
Q 1366 3272 1645 3428 
Q 1925 3584 2291 3584 
Q 2894 3584 3203 3211 
Q 3513 2838 3513 2113 
z
" transform="scale(0.015625)"/>
      <path id="DejaVuSans-67" d="M 2906 1791 
Q 2906 2416 2648 2759 
Q 2391 3103 1925 3103 
Q 1463 3103 1205 2759 
Q 947 2416 947 1791 
Q 947 1169 1205 825 
Q 1463 481 1925 481 
Q 2391 481 2648 825 
Q 2906 1169 2906 1791 
z
M 3481 434 
Q 3481 -459 3084 -895 
Q 2688 -1331 1869 -1331 
Q 1566 -1331 1297 -1286 
Q 1028 -1241 775 -1147 
L 775 -588 
Q 1028 -725 1275 -790 
Q 1522 -856 1778 -856 
Q 2344 -856 2625 -561 
Q 2906 -266 2906 331 
L 2906 616 
Q 2728 306 2450 153 
Q 2172 0 1784 0 
Q 1141 0 747 490 
Q 353 981 353 1791 
Q 353 2603 747 3093 
Q 1141 3584 1784 3584 
Q 2172 3584 2450 3431 
Q 2728 3278 2906 2969 
L 2906 3500 
L 3481 3500 
L 3481 434 
z
" transform="scale(0.015625)"/>
      <path id="DejaVuSans-64" d="M 2906 2969 
L 2906 4863 
L 3481 4863 
L 3481 0 
L 2906 0 
L 2906 525 
Q 2725 213 2448 61 
Q 2172 -91 1784 -91 
Q 1150 -91 751 415 
Q 353 922 353 1747 
Q 353 2572 751 3078 
Q 1150 3584 1784 3584 
Q 2172 3584 2448 3432 
Q 2725 3281 2906 2969 
z
M 947 1747 
Q 947 1113 1208 752 
Q 1469 391 1925 391 
Q 2381 391 2643 752 
Q 2906 1113 2906 1747 
Q 2906 2381 2643 2742 
Q 2381 3103 1925 3103 
Q 1469 3103 1208 2742 
Q 947 2381 947 1747 
z
" transform="scale(0.015625)"/>
      <path id="DejaVuSans-76" d="M 191 3500 
L 800 3500 
L 1894 563 
L 2988 3500 
L 3597 3500 
L 2284 0 
L 1503 0 
L 191 3500 
z
" transform="scale(0.015625)"/>
      <path id="DejaVuSans-74" d="M 1172 4494 
L 1172 3500 
L 2356 3500 
L 2356 3053 
L 1172 3053 
L 1172 1153 
Q 1172 725 1289 603 
Q 1406 481 1766 481 
L 2356 481 
L 2356 0 
L 1766 0 
Q 1100 0 847 248 
Q 594 497 594 1153 
L 594 3053 
L 172 3053 
L 172 3500 
L 594 3500 
L 594 4494 
L 1172 4494 
z
" transform="scale(0.015625)"/>
      <path id="DejaVuSans-26" d="M 1556 2509 
Q 1272 2256 1139 2004 
Q 1006 1753 1006 1478 
Q 1006 1022 1337 719 
Q 1669 416 2169 416 
Q 2466 416 2725 514 
Q 2984 613 3213 813 
L 1556 2509 
z
M 1997 2859 
L 3584 1234 
Q 3769 1513 3872 1830 
Q 3975 2147 3994 2503 
L 4575 2503 
Q 4538 2091 4375 1687 
Q 4213 1284 3922 891 
L 4794 0 
L 4006 0 
L 3559 459 
Q 3234 181 2878 45 
Q 2522 -91 2113 -91 
Q 1359 -91 881 339 
Q 403 769 403 1441 
Q 403 1841 612 2192 
Q 822 2544 1241 2853 
Q 1091 3050 1012 3245 
Q 934 3441 934 3628 
Q 934 4134 1281 4442 
Q 1628 4750 2203 4750 
Q 2463 4750 2720 4694 
Q 2978 4638 3244 4525 
L 3244 3956 
Q 2972 4103 2725 4179 
Q 2478 4256 2266 4256 
Q 1938 4256 1733 4082 
Q 1528 3909 1528 3634 
Q 1528 3475 1620 3314 
Q 1713 3153 1997 2859 
z
" transform="scale(0.015625)"/>
      <path id="DejaVuSans-6b" d="M 581 4863 
L 1159 4863 
L 1159 1991 
L 2875 3500 
L 3609 3500 
L 1753 1863 
L 3688 0 
L 2938 0 
L 1159 1709 
L 1159 0 
L 581 0 
L 581 4863 
z
" transform="scale(0.015625)"/>
      <path id="DejaVuSans-75" d="M 544 1381 
L 544 3500 
L 1119 3500 
L 1119 1403 
Q 1119 906 1312 657 
Q 1506 409 1894 409 
Q 2359 409 2629 706 
Q 2900 1003 2900 1516 
L 2900 3500 
L 3475 3500 
L 3475 0 
L 2900 0 
L 2900 538 
Q 2691 219 2414 64 
Q 2138 -91 1772 -91 
Q 1169 -91 856 284 
Q 544 659 544 1381 
z
M 1991 3584 
L 1991 3584 
z
" transform="scale(0.015625)"/>
      <path id="DejaVuSans-79" d="M 2059 -325 
Q 1816 -950 1584 -1140 
Q 1353 -1331 966 -1331 
L 506 -1331 
L 506 -850 
L 844 -850 
Q 1081 -850 1212 -737 
Q 1344 -625 1503 -206 
L 1606 56 
L 191 3500 
L 800 3500 
L 1894 763 
L 2988 3500 
L 3597 3500 
L 2059 -325 
z
" transform="scale(0.015625)"/>
     </defs>
     <use xlink:href="#DejaVuSans-4d"/>
     <use xlink:href="#DejaVuSans-4c" x="86.279297"/>
     <use xlink:href="#DejaVuSans-50" x="141.992188"/>
     <use xlink:href="#DejaVuSans-20" x="202.294922"/>
     <use xlink:href="#DejaVuSans-54" x="234.082031"/>
     <use xlink:href="#DejaVuSans-72" x="280.416016"/>
     <use xlink:href="#DejaVuSans-61" x="321.529297"/>
     <use xlink:href="#DejaVuSans-69" x="382.808594"/>
     <use xlink:href="#DejaVuSans-6e" x="410.591797"/>
     <use xlink:href="#DejaVuSans-69" x="473.970703"/>
     <use xlink:href="#DejaVuSans-6e" x="501.753906"/>
     <use xlink:href="#DejaVuSans-67" x="565.132812"/>
     <use xlink:href="#DejaVuSans-20" x="628.609375"/>
     <use xlink:href="#DejaVuSans-61" x="660.396484"/>
     <use xlink:href="#DejaVuSans-6e" x="721.675781"/>
     <use xlink:href="#DejaVuSans-64" x="785.054688"/>
     <use xlink:href="#DejaVuSans-20" x="848.53125"/>
     <use xlink:href="#DejaVuSans-76" x="880.318359"/>
     <use xlink:href="#DejaVuSans-61" x="939.498047"/>
     <use xlink:href="#DejaVuSans-6c" x="1000.777344"/>
     <use xlink:href="#DejaVuSans-69" x="1028.560547"/>
     <use xlink:href="#DejaVuSans-64" x="1056.34375"/>
     <use xlink:href="#DejaVuSans-61" x="1119.820312"/>
     <use xlink:href="#DejaVuSans-74" x="1181.099609"/>
     <use xlink:href="#DejaVuSans-69" x="1220.308594"/>
     <use xlink:href="#DejaVuSans-6f" x="1248.091797"/>
     <use xlink:href="#DejaVuSans-6e" x="1309.273438"/>
     <use xlink:href="#DejaVuSans-20" x="1372.652344"/>
     <use xlink:href="#DejaVuSans-6c" x="1404.439453"/>
     <use xlink:href="#DejaVuSans-6f" x="1432.222656"/>
     <use xlink:href="#DejaVuSans-73" x="1493.404297"/>
     <use xlink:href="#DejaVuSans-73" x="1545.503906"/>
     <use xlink:href="#DejaVuSans-20" x="1597.603516"/>
     <use xlink:href="#DejaVuSans-26" x="1629.390625"/>
     <use xlink:href="#DejaVuSans-20" x="1707.369141"/>
     <use xlink:href="#DejaVuSans-74" x="1739.15625"/>
     <use xlink:href="#DejaVuSans-6f" x="1778.365234"/>
     <use xlink:href="#DejaVuSans-70" x="1839.546875"/>
     <use xlink:href="#DejaVuSans-6b" x="1903.023438"/>
     <use xlink:href="#DejaVuSans-20" x="1960.933594"/>
     <use xlink:href="#DejaVuSans-61" x="1992.720703"/>
     <use xlink:href="#DejaVuSans-63" x="2054"/>
     <use xlink:href="#DejaVuSans-63" x="2108.980469"/>
     <use xlink:href="#DejaVuSans-75" x="2163.960938"/>
     <use xlink:href="#DejaVuSans-72" x="2227.339844"/>
     <use xlink:href="#DejaVuSans-61" x="2268.453125"/>
     <use xlink:href="#DejaVuSans-63" x="2329.732422"/>
     <use xlink:href="#DejaVuSans-79" x="2384.712891"/>
    </g>
   </g>
   <g id="legend_1">
    <g id="patch_7">
     <path d="M 64.6 78.82825 
L 168.328125 78.82825 
Q 170.328125 78.82825 170.328125 76.82825 
L 170.328125 48.472 
Q 170.328125 46.472 168.328125 46.472 
L 64.6 46.472 
Q 62.6 46.472 62.6 48.472 
L 62.6 76.82825 
Q 62.6 78.82825 64.6 78.82825 
z
" style="fill: #ffffff; opacity: 0.8; stroke: #cccccc; stroke-linejoin: miter"/>
    </g>
    <g id="line2d_15">
     <path d="M 66.6 54.570437 
L 76.6 54.570437 
L 86.6 54.570437 
" style="fill: none; stroke: #ff0000; stroke-width: 1.5; stroke-linecap: square"/>
    </g>
    <g id="text_16">
     <!-- training loss -->
     <g transform="translate(94.6 58.070437) scale(0.1 -0.1)">
      <use xlink:href="#DejaVuSans-74"/>
      <use xlink:href="#DejaVuSans-72" x="39.208984"/>
      <use xlink:href="#DejaVuSans-61" x="80.322266"/>
      <use xlink:href="#DejaVuSans-69" x="141.601562"/>
      <use xlink:href="#DejaVuSans-6e" x="169.384766"/>
      <use xlink:href="#DejaVuSans-69" x="232.763672"/>
      <use xlink:href="#DejaVuSans-6e" x="260.546875"/>
      <use xlink:href="#DejaVuSans-67" x="323.925781"/>
      <use xlink:href="#DejaVuSans-20" x="387.402344"/>
      <use xlink:href="#DejaVuSans-6c" x="419.189453"/>
      <use xlink:href="#DejaVuSans-6f" x="446.972656"/>
      <use xlink:href="#DejaVuSans-73" x="508.154297"/>
      <use xlink:href="#DejaVuSans-73" x="560.253906"/>
     </g>
    </g>
    <g id="line2d_16">
     <path d="M 66.6 69.248562 
L 76.6 69.248562 
L 86.6 69.248562 
" style="fill: none; stroke: #008000; stroke-width: 1.5; stroke-linecap: square"/>
    </g>
    <g id="text_17">
     <!-- validation loss -->
     <g transform="translate(94.6 72.748562) scale(0.1 -0.1)">
      <use xlink:href="#DejaVuSans-76"/>
      <use xlink:href="#DejaVuSans-61" x="59.179688"/>
      <use xlink:href="#DejaVuSans-6c" x="120.458984"/>
      <use xlink:href="#DejaVuSans-69" x="148.242188"/>
      <use xlink:href="#DejaVuSans-64" x="176.025391"/>
      <use xlink:href="#DejaVuSans-61" x="239.501953"/>
      <use xlink:href="#DejaVuSans-74" x="300.78125"/>
      <use xlink:href="#DejaVuSans-69" x="339.990234"/>
      <use xlink:href="#DejaVuSans-6f" x="367.773438"/>
      <use xlink:href="#DejaVuSans-6e" x="428.955078"/>
      <use xlink:href="#DejaVuSans-20" x="492.333984"/>
      <use xlink:href="#DejaVuSans-6c" x="524.121094"/>
      <use xlink:href="#DejaVuSans-6f" x="551.904297"/>
      <use xlink:href="#DejaVuSans-73" x="613.085938"/>
      <use xlink:href="#DejaVuSans-73" x="665.185547"/>
     </g>
    </g>
   </g>
  </g>
  <g id="axes_2">
   <g id="matplotlib.axis_3">
    <g id="ytick_7">
     <g id="line2d_17">
      <defs>
       <path id="md5d8f7bf07" d="M 0 0 
L 3.5 0 
" style="stroke: #000000; stroke-width: 0.8"/>
      </defs>
      <g>
       <use xlink:href="#md5d8f7bf07" x="414.72" y="288.95745" style="stroke: #000000; stroke-width: 0.8"/>
      </g>
     </g>
     <g id="text_18">
      <!-- 10 -->
      <g transform="translate(421.72 292.756668) scale(0.1 -0.1)">
       <use xlink:href="#DejaVuSans-31"/>
       <use xlink:href="#DejaVuSans-30" x="63.623047"/>
      </g>
     </g>
    </g>
    <g id="ytick_8">
     <g id="line2d_18">
      <g>
       <use xlink:href="#md5d8f7bf07" x="414.72" y="254.65779" style="stroke: #000000; stroke-width: 0.8"/>
      </g>
     </g>
     <g id="text_19">
      <!-- 20 -->
      <g transform="translate(421.72 258.457008) scale(0.1 -0.1)">
       <use xlink:href="#DejaVuSans-32"/>
       <use xlink:href="#DejaVuSans-30" x="63.623047"/>
      </g>
     </g>
    </g>
    <g id="ytick_9">
     <g id="line2d_19">
      <g>
       <use xlink:href="#md5d8f7bf07" x="414.72" y="220.35813" style="stroke: #000000; stroke-width: 0.8"/>
      </g>
     </g>
     <g id="text_20">
      <!-- 30 -->
      <g transform="translate(421.72 224.157349) scale(0.1 -0.1)">
       <use xlink:href="#DejaVuSans-33"/>
       <use xlink:href="#DejaVuSans-30" x="63.623047"/>
      </g>
     </g>
    </g>
    <g id="ytick_10">
     <g id="line2d_20">
      <g>
       <use xlink:href="#md5d8f7bf07" x="414.72" y="186.05847" style="stroke: #000000; stroke-width: 0.8"/>
      </g>
     </g>
     <g id="text_21">
      <!-- 40 -->
      <g transform="translate(421.72 189.857689) scale(0.1 -0.1)">
       <use xlink:href="#DejaVuSans-34"/>
       <use xlink:href="#DejaVuSans-30" x="63.623047"/>
      </g>
     </g>
    </g>
    <g id="ytick_11">
     <g id="line2d_21">
      <g>
       <use xlink:href="#md5d8f7bf07" x="414.72" y="151.75881" style="stroke: #000000; stroke-width: 0.8"/>
      </g>
     </g>
     <g id="text_22">
      <!-- 50 -->
      <g transform="translate(421.72 155.558029) scale(0.1 -0.1)">
       <use xlink:href="#DejaVuSans-35"/>
       <use xlink:href="#DejaVuSans-30" x="63.623047"/>
      </g>
     </g>
    </g>
    <g id="ytick_12">
     <g id="line2d_22">
      <g>
       <use xlink:href="#md5d8f7bf07" x="414.72" y="117.45915" style="stroke: #000000; stroke-width: 0.8"/>
      </g>
     </g>
     <g id="text_23">
      <!-- 60 -->
      <g transform="translate(421.72 121.258369) scale(0.1 -0.1)">
       <use xlink:href="#DejaVuSans-36"/>
       <use xlink:href="#DejaVuSans-30" x="63.623047"/>
      </g>
     </g>
    </g>
    <g id="ytick_13">
     <g id="line2d_23">
      <g>
       <use xlink:href="#md5d8f7bf07" x="414.72" y="83.15949" style="stroke: #000000; stroke-width: 0.8"/>
      </g>
     </g>
     <g id="text_24">
      <!-- 70 -->
      <g transform="translate(421.72 86.958709) scale(0.1 -0.1)">
       <defs>
        <path id="DejaVuSans-37" d="M 525 4666 
L 3525 4666 
L 3525 4397 
L 1831 0 
L 1172 0 
L 2766 4134 
L 525 4134 
L 525 4666 
z
" transform="scale(0.015625)"/>
       </defs>
       <use xlink:href="#DejaVuSans-37"/>
       <use xlink:href="#DejaVuSans-30" x="63.623047"/>
      </g>
     </g>
    </g>
    <g id="ytick_14">
     <g id="line2d_24">
      <g>
       <use xlink:href="#md5d8f7bf07" x="414.72" y="48.85983" style="stroke: #000000; stroke-width: 0.8"/>
      </g>
     </g>
     <g id="text_25">
      <!-- 80 -->
      <g transform="translate(421.72 52.659049) scale(0.1 -0.1)">
       <use xlink:href="#DejaVuSans-38"/>
       <use xlink:href="#DejaVuSans-30" x="63.623047"/>
      </g>
     </g>
    </g>
    <g id="text_26">
     <!-- accuracy -->
     <g transform="translate(446.043438 197.087375) rotate(-90) scale(0.1 -0.1)">
      <use xlink:href="#DejaVuSans-61"/>
      <use xlink:href="#DejaVuSans-63" x="61.279297"/>
      <use xlink:href="#DejaVuSans-63" x="116.259766"/>
      <use xlink:href="#DejaVuSans-75" x="171.240234"/>
      <use xlink:href="#DejaVuSans-72" x="234.619141"/>
      <use xlink:href="#DejaVuSans-61" x="275.732422"/>
      <use xlink:href="#DejaVuSans-63" x="337.011719"/>
      <use xlink:href="#DejaVuSans-79" x="391.992188"/>
     </g>
    </g>
   </g>
   <g id="line2d_25">
    <path d="M 73.832727 295.488 
L 77.112066 276.651094 
L 80.391405 265.816173 
L 83.670744 259.526633 
L 86.950083 254.886116 
L 90.229421 249.156821 
L 93.50876 243.152689 
L 96.788099 240.245759 
L 100.067438 240.594591 
L 103.346777 233.903367 
L 106.626116 229.43198 
L 109.905455 226.810457 
L 113.184793 226.155077 
L 116.464132 222.761897 
L 119.743471 223.079016 
L 123.02281 214.284232 
L 126.302149 212.952329 
L 129.581488 209.844557 
L 132.860826 207.645861 
L 136.140165 207.571866 
L 139.419504 201.874283 
L 142.698843 197.720016 
L 145.978182 196.842652 
L 149.257521 189.348058 
L 152.53686 189.559471 
L 155.816198 186.113437 
L 159.095537 184.147296 
L 162.374876 186.15572 
L 165.654215 179.031099 
L 168.933554 175.933897 
L 172.212893 177.582919 
L 175.492231 172.350445 
L 178.77157 168.523868 
L 182.050909 165.532373 
L 185.330248 163.925633 
L 188.609587 160.627589 
L 191.888926 162.107481 
L 195.168264 155.014572 
L 198.447603 148.989299 
L 201.726942 151.91737 
L 205.006281 150.173212 
L 208.28562 154.940577 
L 211.564959 149.834951 
L 214.844298 141.536987 
L 218.123636 144.64476 
L 221.402975 144.338211 
L 224.682314 130.902909 
L 227.961653 127.752854 
L 231.240992 123.270896 
L 234.520331 125.871277 
L 237.799669 129.391305 
L 241.079008 124.201114 
L 244.358347 130.057256 
L 247.637686 123.915706 
L 250.917025 114.190704 
L 254.196364 122.340678 
L 257.475702 119.433749 
L 260.755041 112.245703 
L 264.03438 108.239425 
L 267.313719 106.759534 
L 270.593058 107.414914 
L 273.872397 112.52054 
L 277.151736 96.759694 
L 280.431074 101.336788 
L 283.710413 117.657879 
L 286.989752 95.945754 
L 290.269091 99.138092 
L 293.54843 96.69627 
L 296.827769 91.0304 
L 300.107107 94.148743 
L 303.386446 81.411104 
L 306.665785 93.45108 
L 309.945124 86.770426 
L 313.224463 91.569503 
L 316.503802 69.540259 
L 319.78314 79.550669 
L 323.062479 87.943769 
L 326.341818 82.373034 
L 329.621157 85.100262 
L 332.900496 87.129828 
L 336.179835 73.018004 
L 339.459174 83.535806 
L 342.738512 72.595178 
L 346.017851 70.967297 
L 349.29719 80.079202 
L 352.576529 83.916349 
L 355.855868 73.250559 
L 359.135207 66.633329 
L 362.414545 63.483274 
L 365.693884 68.377487 
L 368.973223 65.407133 
L 372.252562 66.189362 
L 375.531901 63.493845 
L 378.81124 72.415477 
L 382.090579 62.753899 
L 385.369917 55.174739 
L 388.649256 67.711536 
L 391.928595 80.280044 
L 395.207934 60.100665 
L 398.487273 53.568 
" clip-path="url(#p069ff709e8)" style="fill: none; stroke: #bf00bf; stroke-width: 1.5; stroke-linecap: square"/>
   </g>
   <g id="line2d_26">
    <path d="M 73.832727 288.608471 
L 77.112066 275.230938 
L 80.391405 271.117971 
L 83.670744 265.260107 
L 86.950083 252.422662 
L 90.229421 259.152973 
L 93.50876 253.54438 
L 96.788099 256.244814 
L 100.067438 253.045839 
L 103.346777 247.06334 
L 106.626116 254.292193 
L 109.905455 249.015961 
L 113.184793 255.829362 
L 116.464132 249.057506 
L 119.743471 248.268149 
L 123.02281 250.428495 
L 126.302149 252.464207 
L 129.581488 249.597593 
L 132.860826 245.60926 
L 136.140165 243.116552 
L 139.419504 247.478791 
L 142.698843 249.431412 
L 145.978182 248.143513 
L 149.257521 246.066257 
L 152.53686 247.935788 
L 155.816198 243.781275 
L 159.095537 247.271066 
L 162.374876 252.173391 
L 165.654215 245.276899 
L 168.933554 249.805318 
L 172.212893 243.448914 
L 175.492231 247.14643 
L 178.77157 246.938705 
L 182.050909 245.775441 
L 185.330248 253.128929 
L 188.609587 254.416828 
L 191.888926 252.173391 
L 195.168264 249.805319 
L 198.447603 247.395701 
L 201.726942 255.455456 
L 205.006281 252.339571 
L 208.28562 255.621637 
L 211.564959 255.746272 
L 214.844298 248.891326 
L 218.123636 248.309694 
L 221.402975 252.464207 
L 224.682314 258.405161 
L 227.961653 256.577175 
L 231.240992 251.217853 
L 234.520331 254.499918 
L 237.799669 255.289276 
L 241.079008 255.497001 
L 244.358347 254.749189 
L 247.637686 250.179225 
L 250.917025 250.511586 
L 254.196364 253.54438 
L 257.475702 248.351239 
L 260.755041 255.413911 
L 264.03438 253.045839 
L 267.313719 256.53563 
L 270.593058 256.784901 
L 273.872397 254.666099 
L 277.151736 259.402244 
L 280.431074 257.366532 
L 283.710413 252.879658 
L 286.989752 254.99846 
L 290.269091 258.32207 
L 293.54843 261.188684 
L 296.827769 254.873825 
L 300.107107 251.92412 
L 303.386446 263.390576 
L 306.665785 256.660265 
L 309.945124 252.796568 
L 313.224463 251.84103 
L 316.503802 256.369449 
L 319.78314 259.028337 
L 323.062479 257.491168 
L 326.341818 255.123095 
L 329.621157 257.366532 
L 332.900496 257.532713 
L 336.179835 258.363615 
L 339.459174 256.244814 
L 342.738512 252.048756 
L 346.017851 257.491168 
L 349.29719 259.360699 
L 352.576529 260.523962 
L 355.855868 259.236063 
L 359.135207 254.707644 
L 362.414545 261.147139 
L 365.693884 255.621637 
L 368.973223 260.980959 
L 372.252562 259.402244 
L 375.531901 263.639847 
L 378.81124 257.117262 
L 382.090579 252.921203 
L 385.369917 259.526879 
L 388.649256 260.607053 
L 391.928595 262.767399 
L 395.207934 253.419745 
L 398.487273 257.532713 
" clip-path="url(#p069ff709e8)" style="fill: none; stroke: #0000ff; stroke-width: 1.5; stroke-linecap: square"/>
   </g>
   <g id="patch_8">
    <path d="M 57.6 307.584 
L 57.6 41.472 
" style="fill: none; stroke: #000000; stroke-width: 0.8; stroke-linejoin: miter; stroke-linecap: square"/>
   </g>
   <g id="patch_9">
    <path d="M 414.72 307.584 
L 414.72 41.472 
" style="fill: none; stroke: #000000; stroke-width: 0.8; stroke-linejoin: miter; stroke-linecap: square"/>
   </g>
   <g id="patch_10">
    <path d="M 57.6 307.584 
L 414.72 307.584 
" style="fill: none; stroke: #000000; stroke-width: 0.8; stroke-linejoin: miter; stroke-linecap: square"/>
   </g>
   <g id="patch_11">
    <path d="M 57.6 41.472 
L 414.72 41.472 
" style="fill: none; stroke: #000000; stroke-width: 0.8; stroke-linejoin: miter; stroke-linecap: square"/>
   </g>
   <g id="legend_2">
    <g id="patch_12">
     <path d="M 278.18875 78.82825 
L 407.72 78.82825 
Q 409.72 78.82825 409.72 76.82825 
L 409.72 48.472 
Q 409.72 46.472 407.72 46.472 
L 278.18875 46.472 
Q 276.18875 46.472 276.18875 48.472 
L 276.18875 76.82825 
Q 276.18875 78.82825 278.18875 78.82825 
z
" style="fill: #ffffff; opacity: 0.8; stroke: #cccccc; stroke-linejoin: miter"/>
    </g>
    <g id="line2d_27">
     <path d="M 280.18875 54.570437 
L 290.18875 54.570437 
L 300.18875 54.570437 
" style="fill: none; stroke: #bf00bf; stroke-width: 1.5; stroke-linecap: square"/>
    </g>
    <g id="text_27">
     <!-- training accuracy -->
     <g transform="translate(308.18875 58.070437) scale(0.1 -0.1)">
      <use xlink:href="#DejaVuSans-74"/>
      <use xlink:href="#DejaVuSans-72" x="39.208984"/>
      <use xlink:href="#DejaVuSans-61" x="80.322266"/>
      <use xlink:href="#DejaVuSans-69" x="141.601562"/>
      <use xlink:href="#DejaVuSans-6e" x="169.384766"/>
      <use xlink:href="#DejaVuSans-69" x="232.763672"/>
      <use xlink:href="#DejaVuSans-6e" x="260.546875"/>
      <use xlink:href="#DejaVuSans-67" x="323.925781"/>
      <use xlink:href="#DejaVuSans-20" x="387.402344"/>
      <use xlink:href="#DejaVuSans-61" x="419.189453"/>
      <use xlink:href="#DejaVuSans-63" x="480.46875"/>
      <use xlink:href="#DejaVuSans-63" x="535.449219"/>
      <use xlink:href="#DejaVuSans-75" x="590.429688"/>
      <use xlink:href="#DejaVuSans-72" x="653.808594"/>
      <use xlink:href="#DejaVuSans-61" x="694.921875"/>
      <use xlink:href="#DejaVuSans-63" x="756.201172"/>
      <use xlink:href="#DejaVuSans-79" x="811.181641"/>
     </g>
    </g>
    <g id="line2d_28">
     <path d="M 280.18875 69.248562 
L 290.18875 69.248562 
L 300.18875 69.248562 
" style="fill: none; stroke: #0000ff; stroke-width: 1.5; stroke-linecap: square"/>
    </g>
    <g id="text_28">
     <!-- validation accuracy -->
     <g transform="translate(308.18875 72.748562) scale(0.1 -0.1)">
      <use xlink:href="#DejaVuSans-76"/>
      <use xlink:href="#DejaVuSans-61" x="59.179688"/>
      <use xlink:href="#DejaVuSans-6c" x="120.458984"/>
      <use xlink:href="#DejaVuSans-69" x="148.242188"/>
      <use xlink:href="#DejaVuSans-64" x="176.025391"/>
      <use xlink:href="#DejaVuSans-61" x="239.501953"/>
      <use xlink:href="#DejaVuSans-74" x="300.78125"/>
      <use xlink:href="#DejaVuSans-69" x="339.990234"/>
      <use xlink:href="#DejaVuSans-6f" x="367.773438"/>
      <use xlink:href="#DejaVuSans-6e" x="428.955078"/>
      <use xlink:href="#DejaVuSans-20" x="492.333984"/>
      <use xlink:href="#DejaVuSans-61" x="524.121094"/>
      <use xlink:href="#DejaVuSans-63" x="585.400391"/>
      <use xlink:href="#DejaVuSans-63" x="640.380859"/>
      <use xlink:href="#DejaVuSans-75" x="695.361328"/>
      <use xlink:href="#DejaVuSans-72" x="758.740234"/>
      <use xlink:href="#DejaVuSans-61" x="799.853516"/>
      <use xlink:href="#DejaVuSans-63" x="861.132812"/>
      <use xlink:href="#DejaVuSans-79" x="916.113281"/>
     </g>
    </g>
   </g>
  </g>
 </g>
 <defs>
  <clipPath id="p069ff709e8">
   <rect x="57.6" y="41.472" width="357.12" height="266.112"/>
  </clipPath>
 </defs>
</svg>
